<svg xmlns="http://www.w3.org/2000/svg" width="113.126" height="100.89" viewBox="0 0 113.126 100.89">
  <path id="Icon_awesome-charging-station" data-name="Icon awesome-charging-station" d="M64.24,85.653H3.059A3.058,3.058,0,0,0,0,88.712v6.118A3.058,3.058,0,0,0,3.059,97.89H64.24A3.058,3.058,0,0,0,67.3,94.831V88.712A3.058,3.058,0,0,0,64.24,85.653Zm39.768-61.181V15.3a3.059,3.059,0,0,0-6.118,0v9.177H91.772V15.3a3.059,3.059,0,1,0-6.118,0v9.177H82.594a3.058,3.058,0,0,0-3.059,3.059V33.65A15.243,15.243,0,0,0,90.242,48.167V70.821A5.568,5.568,0,0,1,85.795,76.4a5.362,5.362,0,0,1-6.26-5.279V65.77A16.825,16.825,0,0,0,62.711,48.945h-1.53V12.236A12.235,12.235,0,0,0,48.945,0H18.354A12.235,12.235,0,0,0,6.118,12.236v67.3H61.181V58.122h1.53a7.648,7.648,0,0,1,7.648,7.648v4.705c0,7.585,5.529,14.37,13.079,15.106A14.544,14.544,0,0,0,99.419,71.123V48.167A15.243,15.243,0,0,0,110.126,33.65V27.531a3.058,3.058,0,0,0-3.059-3.059h-3.059ZM49.727,33.6,31.812,60.179a2.371,2.371,0,0,1-1.986,1,2.091,2.091,0,0,1-2.231-2.47L32,42.827H20.649a2.12,2.12,0,0,1-2.273-2.273L21.434,20.1a2.213,2.213,0,0,1,2.273-1.742h13a2.084,2.084,0,0,1,2.218,2.526l-2.218,9.711H47.74C49.507,30.591,50.61,32.269,49.727,33.6Z" transform="translate(1.5 1.5)" fill="none" stroke="#2a5592" stroke-width="3"/>
</svg>
