<svg xmlns="http://www.w3.org/2000/svg" width="139.744" height="109.342" viewBox="0 0 139.744 109.342">
  <g id="Group_289" data-name="Group 289" transform="translate(-14006.048 -13328.399)">
    <path id="Path_116" data-name="Path 116" d="M14008.109,13430.52l6.449-19.934h20.521l-4.1,19.934Z" transform="translate(0 -31.794)" fill="none" stroke="#2a5592" stroke-width="3"/>
    <path id="Path_125" data-name="Path 125" d="M14008.11,13424.395l5.59-13.809h17.787l-3.557,13.809Z" transform="translate(9.031 -50.165)" fill="none" stroke="#2a5592" stroke-width="2.5"/>
    <path id="Path_130" data-name="Path 130" d="M14008.11,13422.15l4.807-11.564h15.3l-3.061,11.564Z" transform="translate(17.261 -65.96)" fill="none" stroke="#2a5592" stroke-width="2"/>
    <path id="Path_135" data-name="Path 135" d="M14008.11,13420.781l4.238-10.2h13.486l-2.7,10.2Z" transform="translate(23.242 -81.385)" fill="none" stroke="#2a5592" stroke-width="1.5"/>
    <path id="Path_117" data-name="Path 117" d="M14035.078,13430.52l-6.449-19.934h-20.52l4.1,19.934Z" transform="translate(108.653 -31.794)" fill="none" stroke="#2a5592" stroke-width="3"/>
    <path id="Path_121" data-name="Path 121" d="M14031.486,13424.395l-5.588-13.809h-17.789l3.557,13.809Z" transform="translate(103.213 -50.165)" fill="none" stroke="#2a5592" stroke-width="2.5"/>
    <path id="Path_126" data-name="Path 126" d="M14028.215,13422.15l-4.809-11.564h-15.3l3.061,11.564Z" transform="translate(98.256 -65.96)" fill="none" stroke="#2a5592" stroke-width="2"/>
    <path id="Path_131" data-name="Path 131" d="M14025.836,13420.781l-4.238-10.2h-13.488l2.7,10.2Z" transform="translate(94.654 -81.385)" fill="none" stroke="#2a5592" stroke-width="1.5"/>
    <path id="Path_118" data-name="Path 118" d="M14036.629,13430.47l-4.025-20.014h-20.52l1.68,20.014Z" transform="translate(80.132 -31.744)" fill="none" stroke="#2a5592" stroke-width="3"/>
    <path id="Path_122" data-name="Path 122" d="M14033.361,13424.334l-3.49-13.878h-17.787l1.457,13.878Z" transform="translate(77.961 -50.103)" fill="none" stroke="#2a5592" stroke-width="2.5"/>
    <path id="Path_127" data-name="Path 127" d="M14030.381,13422.078l-3-11.622h-15.3l1.252,11.622Z" transform="translate(75.984 -65.889)" fill="none" stroke="#2a5592" stroke-width="2"/>
    <path id="Path_132" data-name="Path 132" d="M14028.217,13420.7l-2.645-10.247h-13.488l1.105,10.247Z" transform="translate(74.547 -81.307)" fill="none" stroke="#2a5592" stroke-width="1.5"/>
    <path id="Path_119" data-name="Path 119" d="M14012.084,13430.47l4.025-20.014h20.52l-1.68,20.014Z" transform="translate(22.995 -31.744)" fill="none" stroke="#2a5592" stroke-width="3"/>
    <path id="Path_124" data-name="Path 124" d="M14012.084,13424.334l3.49-13.878h17.787l-1.457,13.878Z" transform="translate(28.435 -50.103)" fill="none" stroke="#2a5592" stroke-width="2.5"/>
    <path id="Path_129" data-name="Path 129" d="M14012.084,13422.078l3-11.622h15.3l-1.252,11.622Z" transform="translate(33.392 -65.889)" fill="none" stroke="#2a5592" stroke-width="2"/>
    <path id="Path_134" data-name="Path 134" d="M14012.084,13420.7l2.646-10.247h13.486l-1.1,10.247Z" transform="translate(36.994 -81.307)" fill="none" stroke="#2a5592" stroke-width="1.5"/>
    <path id="Path_120" data-name="Path 120" d="M14012.084,13430.532l1.5-19.915h20.521l.848,19.915Z" transform="translate(51.645 -31.807)" fill="none" stroke="#2a5592" stroke-width="3"/>
    <path id="Path_123" data-name="Path 123" d="M14012.084,13424.409l1.3-13.792h17.789l.734,13.792Z" transform="translate(53.269 -50.18)" fill="none" stroke="#2a5592" stroke-width="2.5"/>
    <path id="Path_128" data-name="Path 128" d="M14012.084,13422.166l1.115-11.549h15.3l.633,11.549Z" transform="translate(54.749 -65.977)" fill="none" stroke="#2a5592" stroke-width="2"/>
    <path id="Path_133" data-name="Path 133" d="M14012.084,13420.8l.986-10.183h13.484l.559,10.183Z" transform="translate(55.824 -81.404)" fill="none" stroke="#2a5592" stroke-width="1.5"/>
    <g id="Rectangle_7729" data-name="Rectangle 7729" transform="translate(14071.567 13400.704)" fill="none" stroke="#2a5592" stroke-width="3">
      <rect width="8" height="22" stroke="none"/>
      <rect x="1.5" y="1.5" width="5" height="19" fill="none"/>
    </g>
    <path id="Path_136" data-name="Path 136" d="M14036.428,13497.5h100.32l-20.295-11.448h-58.975Z" transform="translate(-11.056 -61.258)" fill="none" stroke="#2a5592" stroke-width="3"/>
  </g>
</svg>
